<svg width="391" height="274" viewBox="0 0 391 274" fill="none" xmlns="http://www.w3.org/2000/svg">
<g clip-path="url(#clip0_1795_7024)">
<g filter="url(#filter0_d_1795_7024)">
<path d="M324.617 189.463C324.617 113.793 264.041 52.4601 189.318 52.4601C114.596 52.4601 54.0197 113.806 54.0197 189.463C53.9718 219.994 64.0432 249.658 82.6212 273.704H296.034C314.602 249.654 324.667 219.991 324.617 189.463Z" fill="white"/>
</g>
<path d="M111.107 39.4926H62.343C61.4567 39.4926 60.7383 40.2201 60.7383 41.1175V54.9708C60.7383 55.8682 61.4567 56.5957 62.343 56.5957H111.107C111.993 56.5957 112.712 55.8682 112.712 54.9708V41.1175C112.712 40.2201 111.993 39.4926 111.107 39.4926Z" fill="#E2DBED"/>
<path d="M68.457 45.3614H101.791" stroke="#FDFCFF" stroke-width="1.94" stroke-linecap="round" stroke-linejoin="round"/>
<path d="M68.457 49.9431H80.7849" stroke="#FDFCFF" stroke-width="1.94" stroke-linecap="round" stroke-linejoin="round"/>
<path d="M104.446 54.7286V60.7122C104.446 60.7523 104.436 60.7919 104.415 60.8261C104.394 60.8603 104.364 60.8877 104.328 60.9051C104.293 60.9226 104.253 60.9293 104.213 60.9244C104.174 60.9196 104.137 60.9034 104.106 60.8779L96.4727 54.7286H104.446Z" fill="#E2DBED"/>
<path d="M34.0398 173.004H68.7518C69.9284 173.004 71.0569 173.477 71.8889 174.32C72.7209 175.162 73.1883 176.305 73.1883 177.496V210.275C73.1883 211.467 72.7209 212.609 71.8889 213.452C71.0569 214.294 69.9284 214.767 68.7518 214.767H35.4557C34.6858 214.77 33.923 214.619 33.2108 214.323C32.4986 214.026 31.8511 213.591 31.3052 213.041C30.7594 212.491 30.3259 211.838 30.0295 211.118C29.7332 210.399 29.5798 209.627 29.5781 208.848V177.503C29.5773 176.91 29.6923 176.323 29.9164 175.776C30.1406 175.228 30.4695 174.731 30.8842 174.313C31.2989 173.895 31.7913 173.564 32.3329 173.339C32.8744 173.114 33.4546 173 34.0398 173.004Z" fill="#6F59A0"/>
<path d="M58.0831 189.017C57.6927 188.63 57.2308 188.325 56.7237 188.118C56.2167 187.912 55.6745 187.809 55.1281 187.815C54.5817 187.821 54.0417 187.935 53.5392 188.153C53.0366 188.37 52.5813 188.685 52.1992 189.081L51.1419 190.177L50.0533 189.087C49.664 188.699 49.2031 188.392 48.6967 188.184C48.1904 187.976 47.6485 187.872 47.1022 187.876C46.5558 187.88 46.0156 187.993 45.5124 188.208C45.0092 188.424 44.5528 188.738 44.1694 189.132C43.7859 189.526 43.4829 189.993 43.2776 190.506C43.0723 191.018 42.9687 191.567 42.9728 192.12C42.9769 192.673 43.0885 193.22 43.3014 193.73C43.5143 194.24 43.8242 194.702 44.2134 195.09L48.2598 199.13C48.8766 199.749 49.6724 200.153 50.5315 200.283C51.1859 200.388 51.8555 200.333 52.4842 200.121C53.1128 199.909 53.6819 199.547 54.1437 199.066L58.1208 194.95C58.8886 194.156 59.3155 193.087 59.3084 191.976C59.3013 190.864 58.8609 189.801 58.0831 189.017Z" fill="white"/>
<path d="M305.139 141.62H343.979C345.296 141.62 346.559 142.15 347.49 143.093C348.421 144.036 348.944 145.315 348.944 146.648V183.327C348.944 184.66 348.421 185.939 347.49 186.882C346.559 187.825 345.296 188.355 343.979 188.355H306.725C305.865 188.355 305.013 188.183 304.218 187.85C303.423 187.516 302.701 187.028 302.093 186.412C301.484 185.796 301.002 185.064 300.673 184.26C300.343 183.455 300.174 182.592 300.174 181.721V146.674C300.171 146.011 300.297 145.355 300.545 144.742C300.793 144.129 301.158 143.572 301.619 143.102C302.081 142.632 302.629 142.26 303.233 142.006C303.837 141.751 304.485 141.62 305.139 141.62Z" fill="#AB8BDB"/>
<path d="M321.842 172.067C325.284 172.131 328.764 172.175 331.91 171.952C332.911 171.882 333.798 170.27 332.54 169.767C333.083 169.573 333.534 169.177 333.798 168.658C333.854 168.522 333.881 168.376 333.879 168.229C333.877 168.082 333.846 167.936 333.787 167.802C333.729 167.667 333.643 167.546 333.537 167.446C333.431 167.345 333.306 167.268 333.169 167.218C334.365 167.517 334.836 165.599 333.905 164.981C334.418 164.57 334.774 163.991 334.912 163.343C334.971 163.032 334.94 162.709 334.822 162.415C334.703 162.121 334.503 161.868 334.245 161.687C333.849 161.512 333.417 161.437 332.986 161.47L328.695 161.438C329.078 159.17 329.198 156.697 328.065 154.703C327.719 154.104 326.807 153.384 326.07 153.849C325.334 154.314 325.573 155.353 325.611 156.035C325.668 157.455 325.332 158.864 324.642 160.102C323.951 161.34 322.934 162.359 321.703 163.044C321.703 163.044 321.879 169.002 321.842 172.067Z" fill="#FAFAFA"/>
<path d="M320.595 162.993H315.391V172.061H320.595V162.993Z" fill="#FAFAFA"/>
<path d="M308.524 46.2599C310.975 46.2599 312.961 44.2486 312.961 41.7675C312.961 39.2864 310.975 37.2751 308.524 37.2751C306.074 37.2751 304.088 39.2864 304.088 41.7675C304.088 44.2486 306.074 46.2599 308.524 46.2599Z" stroke="#FDFCFF" stroke-width="1.78" stroke-miterlimit="10"/>
<path d="M5.72559 238.995C8.17582 238.995 10.1621 236.983 10.1621 234.502C10.1621 232.021 8.17582 230.01 5.72559 230.01C3.27537 230.01 1.28906 232.021 1.28906 234.502C1.28906 236.983 3.27537 238.995 5.72559 238.995Z" stroke="#FDFCFF" stroke-width="1.78" stroke-miterlimit="10"/>
<path d="M390.439 150.325C390.439 150.924 390.264 151.509 389.936 152.007C389.607 152.504 389.14 152.892 388.594 153.121C388.048 153.35 387.447 153.41 386.867 153.294C386.287 153.177 385.755 152.889 385.336 152.465C384.918 152.042 384.634 151.503 384.518 150.915C384.403 150.328 384.462 149.72 384.688 149.167C384.915 148.614 385.298 148.141 385.789 147.808C386.281 147.476 386.859 147.298 387.45 147.298C388.243 147.298 389.003 147.617 389.564 148.185C390.124 148.752 390.439 149.522 390.439 150.325V150.325Z" stroke="#FDFCFF" stroke-width="1.78" stroke-miterlimit="10"/>
<path d="M17.9768 65.1089C17.9768 65.1089 16.4791 67.6578 18.5306 69.1744C20.5821 70.691 22.3756 67.8554 24.6599 69.6077C26.9443 71.3601 25.0438 73.4948 25.0438 73.4948" stroke="#FDFCFF" stroke-width="1.78" stroke-miterlimit="10"/>
<path d="M370.738 204.381C370.738 204.381 369.593 207.885 372.5 209.166C375.407 210.447 376.817 206.515 380.052 208.019C383.286 209.523 381.562 212.639 381.562 212.639" stroke="#FDFCFF" stroke-width="1.78" stroke-miterlimit="10"/>
<path d="M25.2768 145.081C25.278 145.852 25.0531 146.607 24.6304 147.25C24.2076 147.892 23.6062 148.393 22.9022 148.689C22.1982 148.985 21.4234 149.062 20.6757 148.912C19.928 148.762 19.2412 148.39 18.7022 147.845C18.1632 147.299 17.7963 146.603 17.6479 145.846C17.4995 145.089 17.5763 144.304 17.8686 143.592C18.1609 142.879 18.6555 142.27 19.2898 141.842C19.9241 141.414 20.6695 141.186 21.4318 141.187C22.451 141.189 23.4281 141.6 24.1488 142.329C24.8695 143.059 25.2751 144.048 25.2768 145.081Z" fill="#AB8BDB"/>
<path d="M353.354 84.2193C353.353 84.9891 353.126 85.7412 352.703 86.3807C352.28 87.0201 351.679 87.5181 350.976 87.8118C350.273 88.1056 349.501 88.1817 348.755 88.0308C348.01 87.8799 347.325 87.5085 346.788 86.9638C346.251 86.419 345.885 85.7253 345.737 84.9702C345.59 84.2151 345.666 83.4326 345.957 82.7215C346.249 82.0105 346.741 81.4028 347.374 80.9752C348.006 80.5477 348.749 80.3195 349.509 80.3195C350.015 80.3195 350.515 80.4204 350.982 80.6165C351.449 80.8126 351.873 81.0999 352.23 81.4621C352.587 81.8244 352.87 82.2543 353.063 82.7274C353.256 83.2005 353.355 83.7075 353.354 84.2193Z" fill="#E2DBED"/>
<path d="M346.466 237.612C346.466 238.201 346.293 238.776 345.97 239.266C345.647 239.755 345.187 240.137 344.65 240.362C344.113 240.587 343.521 240.645 342.951 240.53C342.381 240.415 341.857 240.131 341.446 239.714C341.036 239.297 340.756 238.766 340.644 238.189C340.531 237.611 340.59 237.012 340.813 236.469C341.037 235.925 341.414 235.461 341.899 235.135C342.383 234.808 342.951 234.635 343.533 234.636C344.311 234.638 345.057 234.952 345.607 235.51C346.157 236.068 346.466 236.824 346.466 237.612Z" fill="#AB8BDB"/>
<path d="M165.983 30.4185C165.984 31.0076 165.813 31.5838 165.49 32.0742C165.168 32.5645 164.709 32.9469 164.172 33.173C163.635 33.399 163.043 33.4585 162.472 33.3438C161.902 33.2292 161.378 32.9457 160.966 32.5291C160.555 32.1125 160.275 31.5817 160.162 31.0039C160.048 30.426 160.107 29.8271 160.33 29.2831C160.554 28.7391 160.931 28.2744 161.415 27.9479C161.9 27.6214 162.469 27.4478 163.051 27.449C163.828 27.4507 164.573 27.7641 165.122 28.3206C165.672 28.8772 165.981 29.6315 165.983 30.4185Z" fill="#CFBBEB"/>
<path d="M344.395 122.485H369.881" stroke="#FDFCFF" stroke-width="1.94" stroke-linecap="round" stroke-linejoin="round"/>
<path d="M0 115.424H44.9883" stroke="#FDFCFF" stroke-width="1.94" stroke-miterlimit="10"/>
<path d="M188.227 30.4185H215.28" stroke="#FDFCFF" stroke-width="1.94" stroke-linecap="round" stroke-linejoin="round"/>
<path d="M134.769 79.3446C134.769 79.3446 132.994 92.3886 117.778 100.532C101.549 109.218 113.084 135.337 141.32 136.217C171.986 137.179 188.731 109.205 165.787 74.1576L134.769 79.3446Z" fill="#3A1616"/>
<path d="M144.266 119.98L144.429 97.4672H158.009L158.299 120.242L144.266 119.98Z" fill="#D6906E"/>
<path d="M142.71 104.063C141.986 102.068 147.411 113.296 153.049 112.563C157.876 111.926 158.713 103.132 158.713 103.132C158.713 103.132 156.472 106.484 151.375 106.49C145.667 106.497 142.71 104.063 142.71 104.063Z" fill="#3A1616"/>
<path d="M134.611 85.0477C136.341 95.084 142.099 103.527 151.344 103.527C160.588 103.527 166.938 95.1732 168.077 85.0477C169.367 73.5777 160.582 66.7594 151.344 66.7594C142.106 66.7594 132.836 74.7374 134.611 85.0477Z" fill="#3A1616"/>
<path d="M136.884 90.2793C136.48 89.7045 135.89 89.291 135.216 89.1106C134.543 88.9301 133.828 88.9942 133.196 89.2916C130.711 90.2474 131.831 96.3584 135.562 97.1358C135.981 97.2113 136.41 97.1934 136.821 97.0833C137.232 96.9733 137.614 96.7737 137.941 96.4986C137.941 96.4986 137.029 91.9934 136.884 90.2793Z" fill="#D6906E"/>
<path d="M133.688 91.4519C133.688 91.4519 135.77 90.7445 137.243 93.8478" stroke="#161311" stroke-width="1.02" stroke-linecap="round" stroke-linejoin="round"/>
<path d="M165.403 90.2794C165.807 89.7035 166.397 89.2893 167.07 89.1088C167.744 88.9283 168.459 88.993 169.091 89.2917C171.577 90.2475 170.45 96.3585 166.725 97.1359C166.305 97.2115 165.875 97.1936 165.463 97.0836C165.051 96.9735 164.668 96.7739 164.34 96.4987C164.34 96.4987 165.271 91.9935 165.403 90.2794Z" fill="#D6906E"/>
<path d="M168.613 91.4519C168.613 91.4519 166.53 90.7445 165.051 93.8478" stroke="#161311" stroke-width="1.02" stroke-linecap="round" stroke-linejoin="round"/>
<path d="M136.654 85.0158C136.654 88.9284 137.05 96.2947 139.555 101.157C141.908 105.726 146.1 108.039 151.203 108.045C156.307 108.051 160.844 104.579 162.858 100.66C165.903 94.7335 165.759 85.0859 165.759 85.0859C165.759 85.0859 165.759 71.0989 151.36 71.0989C136.201 71.0989 136.654 85.0158 136.654 85.0158Z" fill="#D6906E"/>
<path d="M147.958 84.3404L140.066 86.405C140.066 86.405 140.425 84.162 143.653 83.3527C146.882 82.5435 147.958 84.3404 147.958 84.3404Z" fill="#1A1A1A"/>
<path d="M152.984 84.3404L160.882 86.405C160.882 86.405 160.517 84.162 157.289 83.3527C154.06 82.5435 152.984 84.3404 152.984 84.3404Z" fill="#1A1A1A"/>
<path d="M150.019 90.9612L149.66 93.816H151.705" stroke="#161311" stroke-width="1.02" stroke-linecap="round" stroke-linejoin="round"/>
<path d="M156.75 96.2374H145.266C145.266 96.2374 145.593 100.526 150.986 100.532C155.964 100.545 156.75 96.2374 156.75 96.2374Z" fill="white"/>
<path d="M146.331 88.9284C146.331 88.9284 144.147 87.8069 142.297 88.9284" stroke="#161311" stroke-width="1.02" stroke-linecap="round" stroke-linejoin="round"/>
<path d="M158.889 88.9284C158.889 88.9284 156.706 87.8069 154.855 88.9284" stroke="#161311" stroke-width="1.02" stroke-linecap="round" stroke-linejoin="round"/>
<path d="M165.403 90.2794C165.403 90.2794 161.571 82.5881 164.245 75.7443C164.245 75.7443 166.913 75.7825 166.819 86.4624L165.403 90.2794Z" fill="#3A1616"/>
<path d="M136.883 90.2794C136.883 90.2794 140.703 82.1038 138.041 75.7443C138.041 75.7443 135.373 75.7825 135.467 86.4624L136.883 90.2794Z" fill="#3A1616"/>
<path d="M168.205 81.6896C168.205 81.6896 147.438 80.4152 141.422 71.921C141.422 71.921 143.385 66.6193 152.636 68.0976C161.887 69.576 168.205 81.6896 168.205 81.6896Z" fill="#3A1616"/>
<path d="M149.929 69.7352C149.929 69.7352 144.051 82.091 135.656 81.6768C135.656 81.6768 140.269 69.8563 149.929 69.7352Z" fill="#3A1616"/>
<path d="M137.916 261.049C137.916 261.049 144.07 230.099 147.695 221.662C147.77 221.496 147.894 221.357 148.049 221.264C148.205 221.172 148.385 221.13 148.565 221.145C148.745 221.161 148.916 221.232 149.054 221.35C149.193 221.467 149.292 221.626 149.338 221.802C150.212 225.02 151.358 234.496 150.848 262.387V273.787H175.032L178.808 246.348C179.003 244.245 186.762 209.854 167.254 183.34H129.421C129.421 183.34 114.11 210.001 112.002 242.601C111.53 249.859 111.372 260.941 110.391 273.781H135.229L137.916 261.049Z" fill="#6F59A0"/>
<path d="M137.242 216.66L149.671 221.802" stroke="#533D85" stroke-width="1.99" stroke-miterlimit="10"/>
<path d="M119.423 123.944C119.423 123.944 111.494 125.085 105.691 145.195L121.317 154.263L130.536 141.423L119.423 123.944Z" fill="#EEEAF4"/>
<path d="M121.315 154.263C121.315 154.263 110.938 170.742 108.477 173.705C105.96 176.77 102.071 178.286 98.7169 176.164C97.2604 175.241 96.1906 173.807 95.7113 172.135C95.232 170.464 95.3767 168.673 96.1179 167.103L106.879 145.807L121.315 154.263Z" fill="#D6906E"/>
<path d="M96.2561 123.969L108.678 164.905L95.4317 170.742L87.4648 124.581L96.2561 123.969Z" fill="#D6906E"/>
<path d="M95.4015 126.002L97.346 124.09C98.7697 122.705 99.6504 120.844 99.8254 118.852L100.323 113.296C100.323 113.296 100.644 110.377 94.898 111.11C89.1526 111.843 88.8127 111.881 88.882 113.602C88.882 113.602 89.9329 115.998 93.6332 116.482L95.4015 126.002Z" fill="#D6906E"/>
<path d="M88.1306 126.856C88.1306 126.856 82.467 123.67 82.1964 113.615C82.1821 113.044 82.3116 112.479 82.5725 111.973C82.8334 111.467 83.2172 111.036 83.6878 110.722C85.1603 109.74 89.4018 107.274 91.6736 108.854L95.657 114.054L95.399 126.002L88.1306 126.856Z" fill="#D6906E"/>
<path d="M96.4891 112.302L99.6356 96.0972C99.7269 95.6335 99.6341 95.1522 99.3773 94.7573C99.1205 94.3625 98.7204 94.0861 98.2638 93.9879C97.8069 93.8905 97.3306 93.978 96.9366 94.2317C96.5426 94.4853 96.2623 94.885 96.1556 95.3452L93.3616 107.599L92.0212 107.86L87.3832 95.4599C87.3064 95.2533 87.1891 95.0645 87.0384 94.9049C86.8877 94.7454 86.7067 94.6183 86.5062 94.5314C86.3058 94.4445 86.09 94.3995 85.872 94.3992C85.6539 94.3989 85.438 94.4433 85.2374 94.5296C84.884 94.6853 84.5965 94.9628 84.426 95.3127C84.2555 95.6627 84.213 96.0625 84.306 96.4413L88.8621 113.602L96.4891 112.302Z" fill="#D6906E"/>
<path d="M96.7395 111.015C96.7395 111.015 88.9425 110.263 88.8796 113.627C88.8796 113.627 88.7097 116.176 93.6308 116.507C92.7195 116.809 91.9232 117.39 91.3518 118.17C90.7803 118.949 90.4618 119.889 90.4403 120.86" stroke="#BF704F" stroke-miterlimit="10"/>
<path d="M104.387 150.758L107.684 161.629" stroke="#BF704F" stroke-miterlimit="10"/>
<path d="M172.676 147.432C172.676 147.432 185.016 191.4 189.742 228.213L197.697 226.684C197.697 226.684 196.482 172.717 188.458 139.333L172.676 147.432Z" fill="#D6906E"/>
<path d="M197.635 224.842C197.635 224.842 209.592 242.729 195.238 250.771C194.778 251.028 194.245 251.117 193.728 251.023C193.211 250.929 192.742 250.658 192.4 250.254L192.305 250.14C191.938 249.694 191.75 249.125 191.778 248.546C191.806 247.966 192.048 247.418 192.456 247.011C194.495 244.915 197.239 240.575 192.865 234.904C192.865 234.904 190.575 235.496 190.977 240.11C191.003 240.389 190.967 240.67 190.873 240.934C190.778 241.198 190.628 241.437 190.432 241.635C190.237 241.833 190 241.986 189.74 242.081C189.48 242.176 189.202 242.213 188.926 242.187C188.537 242.149 188.17 241.989 187.874 241.73C187.579 241.47 187.37 241.125 187.277 240.741C186.522 237.701 185.276 230.156 190.084 226.085L197.635 224.842Z" fill="#D6906E"/>
<path d="M180.28 127.608C180.28 127.608 191.608 131.38 193.628 149.503L175.183 156.589L171.023 145.119L180.28 127.608Z" fill="#EEEAF4"/>
<path d="M169.382 123.415L180.463 127.652L167.28 178.146H129.415L119.422 123.944L132.549 120.86L169.382 123.415Z" fill="#EEEAF4"/>
<path d="M149.679 151.529C150.123 151.529 150.51 151.475 150.84 151.367C151.17 151.253 151.443 151.094 151.659 150.89C151.881 150.68 152.046 150.428 152.154 150.134C152.262 149.834 152.316 149.501 152.316 149.135C152.316 148.787 152.262 148.472 152.154 148.19C152.046 147.908 151.884 147.668 151.668 147.47C151.452 147.272 151.179 147.122 150.849 147.02C150.519 146.912 150.129 146.858 149.679 146.858H147.87V151.529H149.679ZM149.679 144.986C150.549 144.986 151.302 145.088 151.938 145.292C152.574 145.496 153.099 145.781 153.513 146.147C153.927 146.513 154.233 146.951 154.431 147.461C154.635 147.971 154.737 148.529 154.737 149.135C154.737 149.765 154.632 150.344 154.422 150.872C154.212 151.394 153.897 151.844 153.477 152.222C153.057 152.6 152.529 152.894 151.893 153.104C151.263 153.314 150.525 153.419 149.679 153.419H147.87V158H145.449V144.986H149.679Z" fill="#EBE4F4" fill-opacity="0.4"/>
<path d="M167.272 178.146H129.414V183.34H167.272V178.146Z" fill="#1A1A1A"/>
<path d="M124.254 150.166L121.309 136.669" stroke="#D8D0E3" stroke-width="1.99" stroke-miterlimit="10"/>
<path d="M173.863 152.938L177.84 137.899" stroke="#C12D71" stroke-width="1.99" stroke-miterlimit="10"/>
<path d="M154.811 117.527L169.38 123.415C169.38 123.415 167.687 129.22 150.589 129.22C135.687 129.22 132.547 120.86 132.547 120.86L146.7 117.527H154.811Z" fill="#D6906E"/>
<path d="M250.289 192.063L266.134 274.138H235.418L223.638 219.897L220.926 219.732L220.888 274.138H190.254L191.821 192.063H250.289Z" fill="#EEEAF4"/>
<path d="M215.74 219.349H233.228" stroke="#D8D0E3" stroke-width="1.99" stroke-miterlimit="10"/>
<path d="M264.412 134.452L293.316 126.971C296.085 126.185 298.439 124.33 299.871 121.805C301.303 119.279 301.699 116.286 300.974 113.468C300.607 112.034 299.961 110.689 299.073 109.512C298.185 108.335 297.074 107.349 295.805 106.613C294.536 105.877 293.134 105.405 291.682 105.225C290.23 105.045 288.757 105.161 287.35 105.566L258.402 113.889L264.412 134.452Z" fill="#E8ABA2"/>
<path d="M267.588 108.561L239.357 112.321L247.431 141.499L274.397 135.815L267.588 108.561Z" fill="#CFBBEB"/>
<path d="M281.074 72.2204C281.798 67.6323 280.035 61.7699 280.035 61.7699L280.665 51.4787C280.729 51.0068 280.617 50.5277 280.35 50.1351C280.084 49.7426 279.682 49.4651 279.224 49.3568C278.982 49.2948 278.731 49.2818 278.485 49.3185C278.239 49.3552 278.002 49.4409 277.789 49.5706C277.575 49.7003 277.389 49.8715 277.241 50.0743C277.093 50.2771 276.986 50.5075 276.927 50.7523L276.096 57.4049H275.196L273.975 46.7187C273.952 46.4149 273.867 46.1192 273.725 45.8505C273.583 45.5818 273.388 45.3459 273.151 45.1578C272.915 44.9696 272.642 44.8334 272.35 44.7576C272.059 44.6819 271.755 44.6683 271.458 44.7178C270.948 44.8106 270.489 45.0853 270.162 45.4922C269.835 45.8991 269.663 46.4111 269.677 46.9353L270.451 58.4563L269.526 58.6411L266.292 47.1137C266.208 46.7973 266.062 46.5013 265.863 46.2434C265.663 45.9855 265.414 45.771 265.131 45.6127C264.848 45.4545 264.536 45.3557 264.214 45.3224C263.893 45.289 263.567 45.3218 263.258 45.4187C262.681 45.6034 262.194 46.002 261.894 46.5348C261.594 47.0676 261.504 47.6954 261.641 48.2926L264.983 61.4895L263.812 61.8145L259.407 52.5429C259.286 52.2894 259.114 52.0643 258.902 51.882C258.69 51.6998 258.443 51.5644 258.176 51.4846C257.91 51.4048 257.63 51.3824 257.354 51.4186C257.078 51.4549 256.813 51.5492 256.575 51.6954C256.184 51.9355 255.886 52.305 255.733 52.7415C255.579 53.1779 255.579 53.6547 255.732 54.0913L260.181 66.4216L256.5 66.326C256.093 66.3274 255.69 66.4152 255.318 66.5838C254.947 66.7524 254.614 66.998 254.342 67.3048C254.07 67.6117 253.864 67.9729 253.738 68.3651C253.612 68.7574 253.569 69.172 253.611 69.5823C253.673 70.1786 253.913 70.7418 254.299 71.1971C254.684 71.6523 255.197 71.9781 255.77 72.1311L260.615 73.3164C262.874 76.2688 265.879 78.5477 269.312 79.9117C269.312 79.9117 280.52 75.7251 281.074 72.2204Z" fill="#E8ABA2"/>
<path d="M260.201 66.4471C260.201 66.4471 267.23 66.033 271.403 70.0411" stroke="#D8857D" stroke-miterlimit="10"/>
<path d="M300.59 112.257L281.069 72.2268L268.754 77.4712L281.164 121.516L300.59 112.257Z" fill="#E8ABA2"/>
<path d="M277.469 108.402L279.382 115.188" stroke="#D8857D" stroke-miterlimit="10"/>
<path d="M214.126 110.734L191.012 115.577L191.824 192.063H250.291L252.123 113.481L230.129 111.556L214.126 110.734Z" fill="#CFBBEB"/>
<path d="M229.561 144.986V158H227.428V149.594C227.428 149.258 227.446 148.895 227.482 148.505L223.549 155.894C223.363 156.248 223.078 156.425 222.694 156.425H222.352C221.968 156.425 221.683 156.248 221.497 155.894L217.519 148.478C217.537 148.676 217.552 148.871 217.564 149.063C217.576 149.255 217.582 149.432 217.582 149.594V158H215.449V144.986H217.276C217.384 144.986 217.477 144.989 217.555 144.995C217.633 145.001 217.702 145.016 217.762 145.04C217.828 145.064 217.885 145.103 217.933 145.157C217.987 145.211 218.038 145.283 218.086 145.373L221.983 152.6C222.085 152.792 222.178 152.99 222.262 153.194C222.352 153.398 222.439 153.608 222.523 153.824C222.607 153.602 222.694 153.389 222.784 153.185C222.874 152.975 222.97 152.774 223.072 152.582L226.915 145.373C226.963 145.283 227.014 145.211 227.068 145.157C227.122 145.103 227.179 145.064 227.239 145.04C227.305 145.016 227.377 145.001 227.455 144.995C227.533 144.989 227.626 144.986 227.734 144.986H229.561Z" fill="#EBE4F4" fill-opacity="0.07"/>
<path d="M251.473 140.671V130.794" stroke="#AB8BDB" stroke-width="1.99" stroke-miterlimit="10"/>
<path d="M199.488 133.566H213.805V140.818C213.805 142.741 213.05 144.585 211.707 145.945C210.364 147.305 208.543 148.069 206.643 148.069C204.745 148.067 202.925 147.303 201.584 145.943C200.242 144.583 199.488 142.74 199.488 140.818V133.566Z" fill="#AB8BDB"/>
<path d="M174.253 135.012L157.583 165.599C156.181 168.172 155.831 171.199 156.609 174.03C157.386 176.861 159.23 179.27 161.743 180.74C164.228 182.191 167.172 182.61 169.955 181.909C172.739 181.208 175.146 179.441 176.67 176.98L193.975 149.019L174.253 135.012Z" fill="#E8ABA2"/>
<path d="M169.086 139.269L192.999 154.805L196.838 136.249C200.884 129.628 206.032 121.643 199.556 117.444C197.998 116.433 196.259 115.743 194.437 115.413C192.615 115.083 190.747 115.121 188.94 115.523C187.132 115.926 185.421 116.685 183.904 117.759C182.387 118.832 181.094 120.197 180.099 121.777L169.086 139.269Z" fill="#CFBBEB"/>
<path d="M191.426 153.785V132.992" stroke="#AB8BDB" stroke-width="1.99" stroke-miterlimit="10"/>
<path d="M165.783 182.122L209.544 180.905L212.559 166.587L163.09 160.253L165.783 182.122Z" fill="#E8ABA2"/>
<path d="M185.26 163.076L173.863 161.629" stroke="#D8857D" stroke-miterlimit="10"/>
<path d="M209.648 167.173C209.648 167.173 215.249 159.527 221.838 167.141L219.22 172.411L209.648 167.173Z" fill="#E8ABA2"/>
<path d="M216.244 159.042L214.488 169.773L227.836 171.277L229.956 160.973C230.015 160.71 230.017 160.437 229.964 160.173C229.911 159.909 229.804 159.659 229.648 159.44C229.493 159.221 229.294 159.038 229.064 158.902C228.834 158.767 228.579 158.682 228.314 158.653L218.333 157.436C217.847 157.378 217.358 157.512 216.968 157.812C216.579 158.111 216.319 158.553 216.244 159.042Z" fill="#1A1A1A"/>
<path d="M212.468 166.256L228.269 166.657C229.15 166.679 229.987 167.048 230.602 167.686C231.217 168.324 231.561 169.181 231.561 170.073C231.563 170.713 231.387 171.342 231.053 171.886C230.719 172.43 230.241 172.868 229.673 173.15L228.823 173.565C228.823 173.565 230.441 185.672 220.944 187.118C211.448 188.565 206.131 180.969 206.131 180.969L212.468 166.256Z" fill="#E8ABA2"/>
<path d="M231.001 111.588L230.781 87.431H213.462L213.072 110.957L231.001 111.588Z" fill="#E8ABA2"/>
<path d="M212.034 94.485C211.134 92.3949 218.05 106.038 225.111 105.267C231.165 104.63 231.404 93.5101 231.404 93.5101C231.404 93.5101 229.258 97.0148 222.864 97.0276C215.747 97.0339 212.034 94.485 212.034 94.485Z" fill="#3A1616"/>
<path d="M240.006 74.1066C238.15 84.8756 231.97 93.937 222.058 93.937C212.147 93.937 205.325 84.984 204.105 74.1066C202.72 61.7699 212.141 53.5752 222.04 53.5752C231.938 53.5752 241.913 63.0507 240.006 74.1066Z" fill="#2F1118"/>
<path d="M237.571 79.7206C238.005 79.1032 238.638 78.6592 239.361 78.4659C240.085 78.2727 240.852 78.3423 241.53 78.6628C244.198 79.6887 242.99 86.2457 239.012 87.0805C238.562 87.1596 238.1 87.1396 237.658 87.022C237.217 86.9043 236.805 86.6918 236.451 86.3987C236.451 86.3987 237.414 81.5621 237.571 79.7206Z" fill="#E8ABA2"/>
<path d="M241 80.9759C241 80.9759 238.766 80.224 237.18 83.5248" stroke="#161311" stroke-width="1.1" stroke-linecap="round" stroke-linejoin="round"/>
<path d="M206.939 79.7205C206.505 79.1041 205.872 78.6609 205.149 78.4677C204.426 78.2745 203.659 78.3435 202.981 78.6627C200.313 79.6886 201.521 86.2457 205.498 87.0804C205.947 87.1612 206.409 87.142 206.85 87.0242C207.291 86.9065 207.701 86.693 208.053 86.3986C208.053 86.3986 207.115 81.5621 206.939 79.7205Z" fill="#E8ABA2"/>
<path d="M203.531 80.9759C203.531 80.9759 205.765 80.224 207.345 83.5248" stroke="#161311" stroke-width="1.1" stroke-linecap="round" stroke-linejoin="round"/>
<path d="M237.822 74.0747C237.822 78.274 237.395 87.0613 234.707 92.2802C232.19 97.1804 228.006 99.8122 222.531 99.9715C218.163 100.093 211.87 95.9506 209.706 91.7449C206.44 85.3727 206.597 74.1512 206.597 74.1512C206.597 74.1512 206.597 59.1445 222.04 59.1445C238.307 59.1445 237.822 74.0747 237.822 74.0747Z" fill="#E8ABA2"/>
<path d="M217.559 78.1162C217.559 78.1162 215.376 76.9947 213.525 78.1162" stroke="#161311" stroke-width="1.02" stroke-linecap="round" stroke-linejoin="round"/>
<path d="M230.12 78.1162C230.12 78.1162 227.936 76.9947 226.086 78.1162" stroke="#161311" stroke-width="1.02" stroke-linecap="round" stroke-linejoin="round"/>
<path d="M218.849 74.2404L210.379 76.4579C210.379 76.4579 210.763 74.0492 214.23 73.1762C217.698 72.3032 218.849 74.2404 218.849 74.2404Z" fill="#1A1A1A"/>
<path d="M224.23 74.2404L232.701 76.4579C232.701 76.4579 232.317 74.0492 228.856 73.1762C225.395 72.3032 224.23 74.2404 224.23 74.2404Z" fill="#1A1A1A"/>
<path d="M220.668 82.2312V85.2963H222.864" stroke="#161311" stroke-width="1.1" stroke-linecap="round" stroke-linejoin="round"/>
<path d="M228.693 87.8707H215.748C215.748 87.8707 216.107 91.3244 221.89 91.3372C227.208 91.3435 228.693 87.8707 228.693 87.8707Z" fill="white"/>
<path d="M206.936 79.7205C206.936 79.7205 212.713 70.7357 208.195 64.1277C208.195 64.1277 205.332 64.1723 205.432 75.5977L206.936 79.7205Z" fill="#2F1118"/>
<path d="M237.572 79.7205C237.572 79.7205 231.789 70.7357 236.314 64.1277C236.314 64.1277 239.171 64.1723 239.07 75.5977L237.572 79.7205Z" fill="#2F1118"/>
<path d="M206.66 63.6943C206.66 63.6943 214.124 72.2459 229.51 70.57C243.247 69.0725 244.437 59.323 241.164 55.4614C236.489 49.9558 226.181 52.0012 220.668 58.1568L206.66 63.6943Z" fill="#2F1118"/>
<path d="M213.072 110.957L222.21 122.848L231.001 111.588L213.072 110.957Z" fill="#E8ABA2"/>
<path d="M213.074 109.281L207.688 112.085L213.779 124.447L219.864 119.796L213.074 109.281Z" fill="#AB8BDB"/>
<path d="M231.046 109.281L237.112 112.168L230.699 124.447L224.658 119.662L231.046 109.281Z" fill="#AB8BDB"/>
<path d="M16.4492 274.182H364.802" stroke="#FDFCFF" stroke-width="1.99" stroke-miterlimit="10"/>
</g>
<defs>
<filter id="filter0_d_1795_7024" x="29.0195" y="31.4601" width="320.598" height="271.244" filterUnits="userSpaceOnUse" color-interpolation-filters="sRGB">
<feFlood flood-opacity="0" result="BackgroundImageFix"/>
<feColorMatrix in="SourceAlpha" type="matrix" values="0 0 0 0 0 0 0 0 0 0 0 0 0 0 0 0 0 0 127 0" result="hardAlpha"/>
<feOffset dy="4"/>
<feGaussianBlur stdDeviation="12.5"/>
<feComposite in2="hardAlpha" operator="out"/>
<feColorMatrix type="matrix" values="0 0 0 0 0.937461 0 0 0 0 0.926337 0 0 0 0 0.970833 0 0 0 1 0"/>
<feBlend mode="normal" in2="BackgroundImageFix" result="effect1_dropShadow_1795_7024"/>
<feBlend mode="normal" in="SourceGraphic" in2="effect1_dropShadow_1795_7024" result="shape"/>
</filter>
<clipPath id="clip0_1795_7024">
<rect width="391" height="274" fill="white"/>
</clipPath>
</defs>
</svg>
